<svg xmlns="http://www.w3.org/2000/svg" width="24" height="24" fill="none" viewBox="0 0 24 24"><path fill="#F4F2F4" fill-rule="evenodd" d="M11.5661 1.25L11.6 1.25L12.4 1.25L12.4339 1.25C14.0854 1.25 15.3708 1.25 16.4019 1.33424C17.4488 1.41977 18.2993 1.59588 19.0644 1.98571C20.3345 2.63285 21.3671 3.66547 22.0143 4.93557C22.4041 5.70065 22.5802 6.55125 22.6658 7.59814C22.75 8.6292 22.75 9.91456 22.75 11.5659L22.75 11.566L22.75 11.566L22.75 11.6L22.75 12.4L22.75 12.434L22.75 12.434L22.75 12.4341C22.75 14.0854 22.75 15.3708 22.6658 16.4019C22.5802 17.4488 22.4041 18.2994 22.0143 19.0644C21.3671 20.3345 20.3345 21.3672 19.0644 22.0143C18.2993 22.4041 17.4488 22.5802 16.4019 22.6658C15.3708 22.75 14.0854 22.75 12.4341 22.75L12.434 22.75L12.434 22.75L12.4 22.75L11.6 22.75L11.566 22.75L11.566 22.75L11.5659 22.75C9.91456 22.75 8.6292 22.75 7.59814 22.6658C6.55124 22.5802 5.70065 22.4041 4.93556 22.0143C3.66547 21.3672 2.63285 20.3345 1.9857 19.0644C1.59587 18.2994 1.41977 17.4488 1.33423 16.4019C1.24999 15.3708 1.24999 14.0854 1.25 12.434L1.25 12.4339L1.25 12.4L1.25 11.6L1.25 11.5661C1.24999 9.91462 1.24999 8.62922 1.33423 7.59814C1.41977 6.55125 1.59587 5.70065 1.9857 4.93557C2.63285 3.66547 3.66547 2.63285 4.93556 1.98571C5.70065 1.59588 6.55124 1.41977 7.59814 1.33424C8.62922 1.25 9.91461 1.25 11.566 1.25L11.5661 1.25ZM14.624 8.58397C14.4849 8.37533 14.2508 8.25 14 8.25C13.7492 8.25 13.5151 8.37533 13.376 8.58397L10 13.6479L8.62404 11.584C8.48494 11.3753 8.25076 11.25 8 11.25L6 11.25C5.58579 11.25 5.25 11.5858 5.25 12C5.25 12.4142 5.58579 12.75 6 12.75L7.59861 12.75L9.37596 15.416C9.51506 15.6247 9.74923 15.75 10 15.75C10.2508 15.75 10.4849 15.6247 10.624 15.416L14 10.3521L15.376 12.416C15.5151 12.6247 15.7492 12.75 16 12.75L18 12.75C18.4142 12.75 18.75 12.4142 18.75 12C18.75 11.5858 18.4142 11.25 18 11.25L16.4014 11.25L14.624 8.58397Z" clip-rule="evenodd"/></svg>