<svg xmlns="http://www.w3.org/2000/svg" width="24" height="24" fill="none" viewBox="0 0 24 24"><path fill="#FDFCFE" d="M2 6.8C2 5.11984 2 4.27976 2.32698 3.63803C2.6146 3.07354 3.07354 2.6146 3.63803 2.32698C4.27976 2 5.11984 2 6.8 2H8.31672C9.11834 2 9.51916 2 9.88103 2.09146C10.4791 2.24262 11.016 2.57444 11.4186 3.04174C11.6623 3.32451 11.8415 3.683 12.2 4.4V4.4C12.439 4.878 12.5585 5.11699 12.7209 5.30551C12.9894 5.61704 13.3473 5.83825 13.746 5.93902C13.9872 6 14.2544 6 14.7889 6H15.6C17.8402 6 18.9603 6 19.816 6.43597C20.5686 6.81947 21.1805 7.43139 21.564 8.18404C22 9.03968 22 10.1598 22 12.4V15.6C22 17.8402 22 18.9603 21.564 19.816C21.1805 20.5686 20.5686 21.1805 19.816 21.564C18.9603 22 17.8402 22 15.6 22H8.4C6.15979 22 5.03968 22 4.18404 21.564C3.43139 21.1805 2.81947 20.5686 2.43597 19.816C2 18.9603 2 17.8402 2 15.6V6.8Z" opacity=".12"/><path fill="#FDFCFD" fill-rule="evenodd" d="M9.69725 2.81861C9.44744 2.75547 9.15833 2.75001 8.31672 2.75001H6.8C5.94755 2.75001 5.35331 2.75059 4.89068 2.78839C4.43681 2.82547 4.17604 2.8946 3.97852 2.99524C3.55516 3.21096 3.21095 3.55516 2.99524 3.97853C2.8946 4.17605 2.82547 4.43681 2.78838 4.89069C2.75058 5.35332 2.75 5.94755 2.75 6.80001V15.6C2.75 16.7325 2.75058 17.5367 2.80201 18.1661C2.85271 18.7868 2.94909 19.171 3.10423 19.4755C3.41582 20.087 3.913 20.5842 4.52453 20.8958C4.829 21.0509 5.21325 21.1473 5.83388 21.198C6.46327 21.2494 7.26752 21.25 8.4 21.25H15.6C16.7325 21.25 17.5367 21.2494 18.1661 21.198C18.7867 21.1473 19.171 21.0509 19.4755 20.8958C20.087 20.5842 20.5842 20.087 20.8958 19.4755C21.0509 19.171 21.1473 18.7868 21.198 18.1661C21.2494 17.5367 21.25 16.7325 21.25 15.6V12.4C21.25 11.2675 21.2494 10.4633 21.198 9.83389C21.1473 9.21326 21.0509 8.82901 20.8958 8.52454C20.5842 7.91301 20.087 7.41582 19.4755 7.10424C19.171 6.9491 18.7867 6.85272 18.1661 6.80201C17.5367 6.75059 16.7325 6.75001 15.6 6.75001H14.7889C14.7616 6.75001 14.7347 6.75002 14.7081 6.75004C14.2527 6.75032 13.896 6.75054 13.5622 6.66616C13.014 6.52761 12.5218 6.22344 12.1528 5.79508C11.928 5.53423 11.7687 5.2151 11.5653 4.80768C11.5534 4.78389 11.5414 4.75981 11.5292 4.73542C11.1528 3.98266 11.0186 3.72651 10.8504 3.53131C10.5484 3.18084 10.1458 2.93197 9.69725 2.81861ZM12.8708 4.0646C12.8564 4.03576 12.8422 4.00732 12.8282 3.97926C12.511 3.34452 12.2924 2.90684 11.9868 2.55218C11.4835 1.96806 10.8124 1.55328 10.0648 1.36434C9.61093 1.24962 9.12168 1.24977 8.41212 1.24999C8.38075 1.25 8.34896 1.25001 8.31672 1.25001H6.8L6.7679 1.25001C5.95506 1.25 5.29944 1.24999 4.76853 1.29337C4.2219 1.33803 3.74175 1.43239 3.29754 1.65873C2.59193 2.01826 2.01825 2.59194 1.65873 3.29754C1.43239 3.74176 1.33803 4.2219 1.29336 4.76854C1.24999 5.29945 1.24999 5.95506 1.25 6.7679L1.25 6.80001V15.6L1.25 15.633C1.24999 16.7252 1.24999 17.5907 1.30699 18.2883C1.36527 19.0017 1.48688 19.6053 1.76772 20.1565C2.22312 21.0502 2.94978 21.7769 3.84355 22.2323C4.39472 22.5131 4.99835 22.6347 5.71173 22.693C6.40935 22.75 7.27485 22.75 8.36698 22.75H8.4H15.6H15.633C16.7252 22.75 17.5906 22.75 18.2883 22.693C19.0017 22.6347 19.6053 22.5131 20.1565 22.2323C21.0502 21.7769 21.7769 21.0502 22.2323 20.1565C22.5131 19.6053 22.6347 19.0017 22.693 18.2883C22.75 17.5907 22.75 16.7252 22.75 15.633V15.6V12.4V12.367C22.75 11.2749 22.75 10.4094 22.693 9.71174C22.6347 8.99835 22.5131 8.39473 22.2323 7.84355C21.7769 6.94978 21.0502 6.22312 20.1565 5.76773C19.6053 5.48689 19.0017 5.36528 18.2883 5.307C17.5906 5.25 16.7251 5.25 15.633 5.25001H15.6H14.7889C14.2144 5.25001 14.0589 5.24455 13.9298 5.2119C13.6806 5.14892 13.4569 5.01066 13.2891 4.81595C13.2021 4.71501 13.1277 4.57836 12.8708 4.0646Z" clip-rule="evenodd"/></svg>