<svg width="20" height="20" viewBox="0 0 20 20" fill="none" xmlns="http://www.w3.org/2000/svg">
<path opacity="0.12" d="M1.6665 6.30194C1.6665 4.777 1.6665 4.01453 1.93725 3.42123C2.2371 2.76414 2.76396 2.23728 3.42105 1.93743C4.01435 1.66669 4.77682 1.66669 6.30176 1.66669H6.93044C7.29925 1.66669 7.48365 1.66669 7.65379 1.68617C8.54148 1.78785 9.33765 2.27991 9.82558 3.02842C9.9191 3.17188 10.0016 3.33681 10.1665 3.66669V3.66669C10.2765 3.8866 10.3314 3.99656 10.3938 4.0922C10.7191 4.5912 11.2499 4.91924 11.8416 4.98703C11.9551 5.00002 12.078 5.00002 12.3239 5.00002H12.6037C14.2139 5.00002 15.0189 5.00002 15.6656 5.22845C16.8054 5.63114 17.7021 6.52775 18.1047 7.66764C18.3332 8.31425 18.3332 9.11934 18.3332 10.7295V11.9334C18.3332 14.1736 18.3332 15.2937 17.8972 16.1493C17.5137 16.902 16.9018 17.5139 16.1491 17.8974C15.2935 18.3334 14.1734 18.3334 11.9332 18.3334H8.06651C5.82629 18.3334 4.70619 18.3334 3.85054 17.8974C3.09789 17.5139 2.48597 16.902 2.10248 16.1493C1.6665 15.2937 1.6665 14.1736 1.6665 11.9334V6.30194Z" fill="#EDEDEF"/>
<path d="M1.6665 6.30194C1.6665 4.777 1.6665 4.01453 1.93725 3.42123C2.2371 2.76414 2.76396 2.23728 3.42105 1.93743C4.01435 1.66669 4.77682 1.66669 6.30176 1.66669H6.93044C7.29925 1.66669 7.48365 1.66669 7.65379 1.68617C8.54148 1.78785 9.33765 2.27991 9.82558 3.02842C9.9191 3.17188 10.0016 3.33681 10.1665 3.66669V3.66669C10.2765 3.8866 10.3314 3.99656 10.3938 4.0922C10.7191 4.5912 11.2499 4.91924 11.8416 4.98703C11.9551 5.00002 12.078 5.00002 12.3239 5.00002H12.6037C14.2139 5.00002 15.0189 5.00002 15.6656 5.22845C16.8054 5.63114 17.7021 6.52775 18.1047 7.66764C18.3332 8.31425 18.3332 9.11934 18.3332 10.7295V11.9334C18.3332 14.1736 18.3332 15.2937 17.8972 16.1493C17.5137 16.902 16.9018 17.5139 16.1491 17.8974C15.2935 18.3334 14.1734 18.3334 11.9332 18.3334H8.06651C5.82629 18.3334 4.70619 18.3334 3.85054 17.8974C3.09789 17.5139 2.48597 16.902 2.10248 16.1493C1.6665 15.2937 1.6665 14.1736 1.6665 11.9334V6.30194Z" stroke="#EDEDEF" stroke-width="1.5" stroke-linecap="round" stroke-linejoin="round"/>
</svg>
