<svg width="24" height="24" viewBox="0 0 24 24" fill="none" xmlns="http://www.w3.org/2000/svg">
<path opacity="0.12" d="M22 17V11.845C22 10.433 22 9.72701 21.8204 9.07517C21.6613 8.49771 21.3998 7.95353 21.0483 7.46857C20.6514 6.92115 20.1001 6.48011 18.9976 5.59805L16.9976 3.99805C15.214 2.57118 14.3222 1.85774 13.3332 1.58413C12.4608 1.34279 11.5392 1.34279 10.6668 1.58413C9.67783 1.85774 8.78603 2.57118 7.00244 3.99805L5.00244 5.59805C3.89986 6.48011 3.34857 6.92115 2.95174 7.46857C2.6002 7.95353 2.33865 8.49771 2.17957 9.07517C2 9.72701 2 10.433 2 11.845V17C2 19.7614 4.23858 22 7 22C8.10457 22 9 21.1046 9 20V15.9999C9 14.3431 10.3431 12.9999 12 12.9999C13.6569 12.9999 15 14.3431 15 15.9999V20C15 21.1046 15.8954 22 17 22C19.7614 22 22 19.7614 22 17Z" fill="#F4F2F4"/>
<path fill-rule="evenodd" clip-rule="evenodd" d="M13.1332 2.30698C12.3917 2.10184 11.6084 2.10184 10.8669 2.30698C10.4834 2.41305 10.0909 2.61055 9.55708 2.97696C9.01546 3.34873 8.37129 3.86347 7.471 4.5837L5.471 6.1837C4.33586 7.09182 3.88237 7.46269 3.55903 7.90875C3.26021 8.32096 3.0379 8.78352 2.90268 9.27436C2.75636 9.8055 2.75004 10.3913 2.75004 11.845V17C2.75004 19.3472 4.65283 21.25 7.00004 21.25C7.6904 21.25 8.25004 20.6904 8.25004 20V15.9999C8.25004 13.9289 9.92898 12.2499 12 12.2499C14.0711 12.2499 15.75 13.9289 15.75 15.9999V20C15.75 20.6904 16.3097 21.25 17 21.25C19.3473 21.25 21.25 19.3472 21.25 17V11.845C21.25 10.3913 21.2437 9.8055 21.0974 9.27436C20.9622 8.78352 20.7399 8.32096 20.4411 7.90875C20.1177 7.46269 19.6642 7.09182 18.5291 6.1837L16.5291 4.5837C15.6288 3.86346 14.9846 3.34873 14.443 2.97696C13.9092 2.61055 13.5166 2.41305 13.1332 2.30698ZM10.4669 0.86128C11.4702 0.583736 12.5299 0.583736 13.5332 0.86128C14.1388 1.02882 14.6866 1.32484 15.2919 1.74026C15.8841 2.14678 16.5708 2.69615 17.4432 3.39407L17.4661 3.41239L19.4661 5.01239C19.4964 5.03663 19.5264 5.0606 19.556 5.0843C20.5728 5.89747 21.1986 6.39797 21.6555 7.02838C22.0598 7.58609 22.3606 8.21189 22.5435 8.87598C22.7503 9.62663 22.7502 10.428 22.7501 11.7299C22.75 11.7678 22.75 11.8062 22.75 11.845V17C22.75 20.1756 20.1757 22.75 17 22.75C15.4813 22.75 14.25 21.5188 14.25 20V15.9999C14.25 14.7573 13.2427 13.7499 12 13.7499C10.7574 13.7499 9.75004 14.7573 9.75004 15.9999V20C9.75004 21.5188 8.51883 22.75 7.00004 22.75C3.82441 22.75 1.25004 20.1756 1.25004 17V11.845C1.25004 11.8062 1.25004 11.7678 1.25003 11.7299C1.24986 10.428 1.24976 9.62663 1.45655 8.87598C1.63949 8.21189 1.94027 7.58609 2.34455 7.02838C2.80153 6.39797 3.42732 5.89747 4.44406 5.0843C4.47369 5.0606 4.50366 5.03664 4.53396 5.01239L6.53396 3.4124L6.55688 3.39406C7.42927 2.69614 8.11597 2.14678 8.70822 1.74026C9.31344 1.32484 9.86131 1.02882 10.4669 0.86128Z" fill="#F4F2F4"/>
</svg>
