<svg width="20" height="20" viewBox="0 0 20 20" fill="none" xmlns="http://www.w3.org/2000/svg">
<rect opacity="0.12" x="2.5" y="6.66663" width="15" height="11.6667" rx="4" fill="#EDEDEF"/>
<path d="M5.83333 6.66663V5.83329C5.83333 4.74769 5.83333 4.20488 5.97218 3.76451C6.26651 2.83102 6.99772 2.0998 7.93122 1.80547C8.37159 1.66663 8.91439 1.66663 10 1.66663V1.66663C11.0856 1.66663 11.6284 1.66663 12.0688 1.80547C13.0023 2.0998 13.7335 2.83102 14.0278 3.76451C14.1667 4.20488 14.1667 4.74769 14.1667 5.83329V6.66663M10 11.6666V13.3333M8.33333 18.3333H11.6667C13.3741 18.3333 14.2278 18.3333 14.909 18.0769C15.9871 17.6712 16.8379 16.8204 17.2436 15.7423C17.5 15.0611 17.5 14.2074 17.5 12.5V12.5C17.5 10.7925 17.5 9.9388 17.2436 9.25763C16.8379 8.17957 15.9871 7.32876 14.909 6.923C14.2278 6.66663 13.3741 6.66663 11.6667 6.66663H8.33333C6.62589 6.66663 5.77218 6.66663 5.091 6.923C4.01294 7.32876 3.16213 8.17957 2.75638 9.25763C2.5 9.9388 2.5 10.7925 2.5 12.5V12.5C2.5 14.2074 2.5 15.0611 2.75638 15.7423C3.16213 16.8204 4.01294 17.6712 5.091 18.0769C5.77218 18.3333 6.62589 18.3333 8.33333 18.3333Z" stroke="#EDEDEF" stroke-width="1.5" stroke-linecap="round"/>
</svg>
