<svg xmlns="http://www.w3.org/2000/svg" width="20" height="20" fill="none" viewBox="0 0 20 20"><path fill="#EDEDEF" d="M18.3332 9.16667C18.3332 9.01192 18.3332 8.93454 18.331 8.86912C18.2621 6.76267 16.5705 5.0711 14.464 5.00214C14.3986 5 14.3213 5 14.1665 5H1.6665V11.9333C1.6665 14.1735 1.6665 15.2936 2.10248 16.1493C2.48597 16.9019 3.09789 17.5139 3.85054 17.8974C4.70619 18.3333 5.82629 18.3333 8.06651 18.3333H14.1665C14.3213 18.3333 14.3986 18.3333 14.464 18.3312C16.5705 18.2622 18.2621 16.5707 18.331 14.4642C18.3332 14.3988 18.3332 14.3214 18.3332 14.1667V14.1667H17.4998C16.1191 14.1667 14.9998 13.0474 14.9998 11.6667C14.9998 10.286 16.1191 9.16667 17.4998 9.16667H18.3332V9.16667Z" opacity=".12"/><path stroke="#EDEDEF" stroke-linecap="round" stroke-linejoin="round" stroke-width="1.5" d="M1.6665 3.33335V13.5334C1.6665 15.2135 1.6665 16.0536 1.99348 16.6953C2.2811 17.2598 2.74005 17.7188 3.30453 18.0064C3.94627 18.3334 4.78635 18.3334 6.4665 18.3334H13.5332C15.2133 18.3334 16.0534 18.3334 16.6951 18.0064C17.2596 17.7188 17.7186 17.2598 18.0062 16.6953C18.3332 16.0536 18.3332 15.2135 18.3332 13.5334V9.80002C18.3332 8.11986 18.3332 7.27978 18.0062 6.63805C17.7186 6.07356 17.2596 5.61462 16.6951 5.327C16.0534 5.00002 15.2133 5.00002 13.5332 5.00002H9.99984M18.3332 9.16669H17.9165C16.5358 9.16669 15.4165 10.286 15.4165 11.6667V11.6667C15.4165 13.0474 16.5358 14.1667 17.9165 14.1667H18.3332M14.1665 5.00002L13.5865 4.22669C12.8825 3.28802 12.5305 2.81869 12.0844 2.48019C11.6893 2.18038 11.2419 1.95667 10.765 1.82047C10.2265 1.66669 9.63983 1.66669 8.4665 1.66669H3.33317C2.4127 1.66669 1.6665 2.41288 1.6665 3.33335V3.33335C1.6665 4.25383 2.4127 5.00002 3.33317 5.00002H14.1665Z"/></svg>