<svg xmlns="http://www.w3.org/2000/svg" width="24" height="24" fill="none" viewBox="0 0 24 24"><path fill="#20134B" d="M7.33152 14.0109L6 22H16.9338C18.3784 22 19.1007 22 19.6865 21.7372C20.2029 21.5055 20.6433 21.1325 20.9567 20.6612C21.3122 20.1265 21.431 19.4141 21.6685 17.9891L22.379 13.7261C22.5926 12.4441 22.6995 11.8032 22.5139 11.3036C22.3511 10.8653 22.0398 10.4978 21.6342 10.2651C21.172 10 20.5222 10 19.2225 10H12.0662C10.6216 10 9.8993 10 9.31346 10.2628C8.79705 10.4945 8.35671 10.8675 8.0433 11.3388C7.68776 11.8735 7.56901 12.5859 7.33152 14.0109Z" opacity=".12"/><path fill="#22272F" fill-rule="evenodd" d="M7.76393 2.74976C8.15092 2.74976 8.28449 2.75092 8.40194 2.76437C9.06771 2.84063 9.66484 3.20968 10.0308 3.77105C10.0953 3.87008 10.1561 3.98903 10.3292 4.33517L10.3488 4.37447C10.4948 4.66661 10.5953 4.86767 10.7126 5.0476C11.3225 5.98323 12.3178 6.5983 13.4274 6.7254C13.6408 6.74984 13.8655 6.74981 14.1921 6.74976L14.2361 6.74976H15.9998C16.9783 6.74976 17.3203 6.7562 17.5825 6.82646C18.3588 7.03453 18.9652 7.64093 19.1733 8.41727C19.2215 8.59721 19.2397 8.8148 19.2463 9.25H19.2225H12.0662H12.0372H12.0371C11.3395 9.24999 10.774 9.24999 10.3112 9.28499C9.83264 9.32118 9.40974 9.39761 9.00648 9.57851C8.36097 9.86809 7.81055 10.3344 7.41878 10.9235C7.17405 11.2915 7.02913 11.6961 6.91475 12.1622C6.80415 12.613 6.71119 13.1708 6.5965 13.8589L6.5965 13.8589L6.59172 13.8876L5.36682 21.237C5.19268 21.2314 5.03525 21.2232 4.89068 21.2114C4.43681 21.1743 4.17604 21.1052 3.97852 21.0045C3.55516 20.7888 3.21095 20.4446 2.99524 20.0212C2.8946 19.8237 2.82547 19.563 2.78838 19.1091C2.75058 18.6464 2.75 18.0522 2.75 17.1998V6.79976C2.75 5.9473 2.75058 5.35307 2.78838 4.89044C2.82547 4.43656 2.8946 4.17579 2.99524 3.97828C3.21095 3.55491 3.55516 3.21071 3.97852 2.99499C4.17604 2.89435 4.43681 2.82522 4.89068 2.78814C5.35331 2.75034 5.94755 2.74976 6.8 2.74976H7.76393ZM15.0193 21.25C15.0129 21.2498 15.0065 21.2498 15 21.2498H6.88539L8.07132 14.1342C8.19192 13.4106 8.27604 12.9089 8.37153 12.5197C8.46478 12.1397 8.55702 11.9207 8.66782 11.7541C8.90288 11.4006 9.23314 11.1209 9.62044 10.9471C9.80302 10.8652 10.0342 10.8102 10.4244 10.7807C10.8239 10.7505 11.3326 10.75 12.0662 10.75H19.2225C19.8857 10.75 20.3349 10.7507 20.6777 10.7803C21.0134 10.8094 21.1665 10.8615 21.261 10.9157C21.5145 11.0611 21.7091 11.2908 21.8109 11.5648C21.8488 11.6669 21.875 11.8265 21.8485 12.1624C21.8214 12.5054 21.7482 12.9486 21.6392 13.6028L20.9287 17.8658C20.8081 18.5894 20.724 19.0911 20.6285 19.4803C20.5352 19.8603 20.443 20.0793 20.3322 20.2459C20.0971 20.5994 19.7669 20.8791 19.3796 21.0529C19.197 21.1348 18.9658 21.1898 18.5756 21.2193C18.1761 21.2495 17.6674 21.25 16.9338 21.25H15.0193ZM5.94088 22.7477C5.4941 22.744 5.10611 22.734 4.76853 22.7064C4.2219 22.6617 3.74176 22.5674 3.29754 22.341C2.59193 21.9815 2.01825 21.4078 1.65873 20.7022C1.43239 20.258 1.33803 19.7779 1.29336 19.2312C1.24999 18.7003 1.24999 18.0447 1.25 17.2319V17.2319V17.1998V6.79976V6.76765V6.76761C1.24999 5.95479 1.24999 5.29919 1.29336 4.76829C1.33803 4.22165 1.43239 3.74151 1.65873 3.29729C2.01825 2.59168 2.59193 2.01801 3.29754 1.65848C3.74176 1.43214 4.2219 1.33778 4.76853 1.29312C5.29944 1.24974 5.95506 1.24975 6.7679 1.24976L6.8 1.24976H7.76393L7.80785 1.24975C8.13446 1.24971 8.35924 1.24967 8.57263 1.27412C9.68225 1.40121 10.6775 2.01629 11.2874 2.95192C11.4047 3.13185 11.5052 3.3329 11.6512 3.62504L11.6708 3.66435C11.8439 4.01048 11.9047 4.12943 11.9692 4.22846C12.3352 4.78984 12.9323 5.15888 13.5981 5.23514C13.7155 5.24859 13.8491 5.24976 14.2361 5.24976H15.9998L16.1156 5.24973C16.9337 5.24946 17.492 5.24928 17.9708 5.3776C19.2647 5.72439 20.2754 6.73505 20.6222 8.02895C20.7162 8.37992 20.7412 8.77362 20.7478 9.2811C20.7678 9.28263 20.7875 9.28425 20.8071 9.28594C21.2367 9.32315 21.6396 9.40364 22.0074 9.61457C22.5651 9.93449 22.9931 10.4397 23.217 11.0425C23.3646 11.4399 23.3778 11.8506 23.3438 12.2805C23.311 12.6959 23.2264 13.2035 23.1242 13.8166L23.1188 13.8494L22.4083 18.1124L22.4035 18.1411C22.2888 18.8293 22.1959 19.387 22.0853 19.8378C21.9709 20.3039 21.826 20.7085 21.5812 21.0765C21.1895 21.6656 20.639 22.1319 19.9935 22.4215C19.5903 22.6024 19.1674 22.6788 18.6888 22.715C18.226 22.75 17.6605 22.75 16.9628 22.75H16.9338H6C5.98019 22.75 5.96047 22.7492 5.94088 22.7477Z" clip-rule="evenodd"/></svg>