<svg xmlns="http://www.w3.org/2000/svg" width="24" height="24" fill="none" viewBox="0 0 24 24"><path fill="#F4F2F4" fill-rule="evenodd" d="M13.5332 0.861288C12.5299 0.583743 11.4702 0.583743 10.4669 0.861288C9.86131 1.02883 9.31344 1.32485 8.70822 1.74027C8.11597 2.14679 7.42927 2.69615 6.55688 3.39407L6.53396 3.4124L4.53396 5.0124L4.44406 5.08431L4.44405 5.08432C3.42732 5.89748 2.80153 6.39798 2.34455 7.02839C1.94027 7.58609 1.63949 8.2119 1.45655 8.87598C1.24976 9.62664 1.24986 10.428 1.25003 11.7299L1.25004 11.845V17C1.25004 20.1756 3.82441 22.75 7.00004 22.75C8.51883 22.75 9.75004 21.5188 9.75004 20V15.9999C9.75004 14.7573 10.7574 13.7499 12 13.7499C13.2427 13.7499 14.25 14.7573 14.25 15.9999V20C14.25 21.5188 15.4813 22.75 17 22.75C20.1757 22.75 22.75 20.1756 22.75 17V11.845L22.7501 11.7299C22.7502 10.428 22.7503 9.62664 22.5435 8.87598C22.3606 8.2119 22.0598 7.58609 21.6555 7.02839C21.1986 6.39798 20.5728 5.89748 19.556 5.0843L19.4661 5.0124L17.4661 3.4124L17.4432 3.39408C16.5708 2.69615 15.8841 2.14679 15.2919 1.74027C14.6866 1.32485 14.1388 1.02883 13.5332 0.861288Z" clip-rule="evenodd"/></svg>